<svg xmlns="http://www.w3.org/2000/svg" xmlns:xlink="http://www.w3.org/1999/xlink" xml:space="preserve" version="1.1" style="shape-rendering:geometricPrecision;text-rendering:geometricPrecision;image-rendering:optimizeQuality;" viewBox="0 0 60000 60000" x="0px" y="0px" fill-rule="evenodd" clip-rule="evenodd">
	<defs>
		<style type="text/css">
			.fil0 {fill:black;fill-rule:nonzero}
		</style>
	</defs>
	<g>
		<path class="fil0" d="M42635 50852c-9,8 -19,15 -30,22l-124 92 -137 -60c-15,-5 -30,-12 -44,-19l-7176 -3110 -241 -2094 -10954 -77 -514 2154 -7683 2286 -5678 -5375c-14,-11 -27,-23 -39,-37l-107 -101 35 -146c2,-15 6,-30 11,-45l1120 -4688 -5207 -1735c-536,-2618 -1072,-5236 -1608,-7854l3753 -3328 -3270 -4408 3113 -7183c4,-10 8,-20 13,-29l63 -145 4982 -574 -150 -5487 6831 -4197 4411 2388 3024 -4580 7827 469 176 11 69 138c7,11 13,23 18,35l2157 4313c1701,-673 3403,-1345 5104,-2018 2044,1622 4088,3244 6132,4866 9,7 18,14 27,21l123 97 -24 159c-1,9 -2,17 -4,26l-708 4777 5338 1275 2286 7683 -110 116c-6,7 -13,14 -20,21l-3319 3506 3642 4106c-825,2477 -1651,4954 -2477,7431 -2,7 -4,14 -7,21l-51 154 -4913 1006 628 5452 -6286 4663zm-11299 4075c-166,-1 -300,-137 -298,-303 1,-166 137,-300 303,-298l2221 26 26 -2218c1,-166 137,-300 303,-298 166,1 300,137 298,303l-26 2221 2218 26c166,1 300,137 298,303 -1,166 -137,300 -303,298l-2221 -26 -26 2218c-1,166 -137,300 -303,298 -166,-1 -300,-137 -298,-303l26 -2221 -2218 -26zm-6700 -3395c-166,-1 -300,-137 -298,-303 1,-166 137,-300 303,-298l2421 28 28 -2418c1,-166 137,-300 303,-298 166,1 300,137 298,303l-28 2421 2418 28c166,1 300,137 298,303 -1,166 -137,300 -303,298l-2421 -28 -28 2418c-1,166 -137,300 -303,298 -166,-1 -300,-137 -298,-303l28 -2421 -2418 -28zm10177 -6450l-295 -2566 -9833 -76 -613 2567 10741 76zm-365 -3168l-242 -2100c1970,-1461 3940,-2923 5910,-4384 -45,-73 -59,-165 -30,-253 757,-2272 1514,-4544 2271,-6815 -80,-34 -144,-102 -170,-191 -683,-2295 -1366,-4590 -2048,-6885 -84,17 -176,-1 -249,-59l-5627 -4465c-59,63 -144,100 -237,94l-7170 -430c-12,85 -61,165 -141,214l-6121 3761c38,77 44,169 7,254l-2857 6592c76,41 134,114 153,205l1441 7038c85,-10 175,16 242,80l5696 5393 -448 1877 9620 75zm-15515 -6301c-1774,1574 -3549,3147 -5324,4721 -5,5 -10,9 -15,13l-122 108 -151 -50c-10,-3 -19,-6 -28,-9l-1648 -549 -991 4151 6768 -2014 1511 -6372zm-1484 6993l-6623 1971 5064 4794 6687 -1989 -4975 -4709c-10,-1 -21,-3 -31,-6 -46,-11 -87,-32 -122,-60zm540 -395l5002 4735 1620 -6786 -5011 -4744 -1611 6795zm-1221 -14275l-7250 835 -1147 -1547 -3194 2832 6699 2233 4892 -4353zm-5226 4875l-6555 -2185 1399 6834 6617 2205 -1374 -6713c-7,-7 -15,-14 -21,-22 -32,-36 -54,-77 -65,-120zm669 -14l1381 6747 5218 -4628 -1384 -6761 -5216 4641zm7188 -12393l-6250 -3384c-11,-5 -21,-11 -31,-17l-137 -74 -4 -150c-2,-16 -2,-32 -1,-48l-47 -1726 -4240 488 4207 5671 6504 -760zm-7078 997l-4117 -5550 -2774 6400 4156 5603 2725 -6287c-2,-10 -4,-21 -5,-31 -5,-47 0,-93 15,-135zm556 372l-2738 6319 6930 -798 2744 -6331 -6935 810zm12998 -6028l-3179 -6356c-7,-11 -13,-23 -18,-36l-69 -138 1060 -1606 -3753 -2032 193 7058 5765 3109zm-6371 -3244l-189 -6906 -5943 3652 191 6970 5839 -3588c4,-9 8,-17 12,-25 23,-42 54,-77 90,-102zm243 624l-5868 3606 6132 3320 5879 -3612 -6143 -3313zm14103 2516c357,-2407 714,-4814 1070,-7222l1791 -708 -1909 -3816 -3891 5894 2938 5852zm-3358 -6310l3807 -5767 -6962 -417 -3842 5820 6841 410c8,-5 17,-10 25,-14 42,-21 87,-31 131,-32zm-157 650l-6876 -412 3119 6238 6890 413 -3133 -6239zm10109 10152l4881 -5156c11,-14 23,-27 37,-39l101 -107 146 35c15,2 30,6 45,11l1681 401 626 -4221 -6566 2596 -950 6480zm868 -7097l6426 -2540 -5462 -4334 -6486 2564 5367 4258c10,0 20,1 30,3 47,7 90,24 126,49zm-503 442l-5395 -4281 -1023 6899 5405 4289 1012 -6907zm2459 14114c2384,-488 4768,-976 7151,-1464l1278 1441 2935 -3100 -6869 -1640 -4495 4764zm4782 -5313l6720 1605 -1989 -6686 -6783 -1620 1954 6569c7,6 15,12 22,19 35,33 60,72 76,114zm-666 73l-1964 -6602 -4794 5064 1968 6615 4791 -5077zm-6082 12972c2175,943 4350,1885 6525,2828 10,4 20,8 29,13l145 63 220 1912 4181 -856 -4686 -5283 -6415 1324zm6966 -1610l4585 5170 2205 -6618 -4629 -5219 -2167 6501c3,10 6,20 8,30 9,46 8,92 -3,135zm-586 -321l2178 -6535 -6834 1399 -2182 6547 6838 -1412zm-5602 16748l-808 -7015 -6397 -2760 806 7002 6399 2773zm-191 -6934l790 6864 5601 -4155 -798 -6929 -5502 4082c-3,9 -7,19 -11,28 -19,44 -47,81 -81,110zm-296 -600l5532 -4103 -6400 -2774 -5542 4111 6410 2766z" />
	</g>
</svg>
